<svg width="24" height="24" viewBox="0 0 24 24" fill="none" xmlns="http://www.w3.org/2000/svg">
<path d="M24 5C24 2.23858 21.7614 0 19 0H5C2.23858 0 0 2.23858 0 5V19C0 21.7614 2.23858 24 5 24H19C21.7614 24 24 21.7614 24 19V5Z" fill="#0C2B4C"/>
<path d="M6 20.5687L7.425 18.8438V5.15625L6 3.43125H11.175V17.775H19.7063L17.7938 20.5687H6ZM6 18.8625C4.40625 17.325 3.43125 15.2062 3.43125 12.8625C3.43125 10.5187 4.425 8.4 6 6.8625V10.125C5.60625 10.95 5.38125 11.8875 5.38125 12.8625C5.38125 13.8375 5.60625 14.7562 6 15.6V18.8625ZM18 12.2625C18 9.1125 15.75 6.50625 12.8625 6.09375V4.29375C16.725 4.70625 19.725 8.11875 19.725 12.2625C19.725 14.4188 18.6375 16.2938 18.6375 16.2938H16.575C17.475 15.2063 18 13.8 18 12.2625Z" fill="#F3AE25"/>
</svg>
