<svg width="24" height="24" viewBox="0 0 24 24" fill="none" xmlns="http://www.w3.org/2000/svg">
<path d="M24 5C24 2.23858 21.7614 0 19 0H5C2.23858 0 0 2.23858 0 5V19C0 21.7614 2.23858 24 5 24H19C21.7614 24 24 21.7614 24 19V5Z" fill="black"/>
<path d="M11.5688 17.9062C11.6625 17.9062 11.6625 17.7375 11.6625 16.6125C11.6625 15.15 11.6625 15.15 12.1688 14.9813C12.3375 14.9813 12.5062 14.8875 12.5062 14.8875C12.6 14.8875 12.6 14.7187 12.6 14.3812C12.6 13.7812 12.6 13.6125 12.7687 13.5187C12.8625 13.5187 13.2 13.425 13.5375 13.35C13.875 13.2562 14.2313 13.1813 14.3063 13.1813C14.4 13.0875 14.4 12.4875 14.3063 12.2438C14.2125 11.7375 13.9688 11.7375 13.0125 12.075C12.675 12.1688 12.3188 12.3375 12.15 12.3375C11.8875 12.3375 11.8125 12.3375 11.7188 12.1688C11.625 12.075 11.55 12 11.2875 12C10.8563 12 10.5938 12.0938 10.5938 12.2625C10.5938 12.3563 10.5 12.3563 10.5 12.3563C10.4062 12.3563 10.4062 12.45 10.5 12.525C10.5938 12.6938 10.5938 17.325 10.5 17.6625C10.4062 17.8312 10.4062 17.8312 10.5938 17.925C10.6875 18.0187 10.7625 18.0187 11.1 18.0187C11.3063 18 11.5688 18 11.5688 17.9062ZM10.6313 19.5375C10.125 19.4437 9.2625 19.2 9 18.9375C8.56875 18.675 8.23125 18.1687 8.0625 17.7375C7.96875 17.3062 7.96875 17.1375 7.96875 11.7375C7.96875 7.875 7.96875 6.075 8.0625 5.83125C8.325 4.725 9.16875 3.9375 10.5562 3.76875C11.6625 3.50625 13.125 3.6 14.0625 3.8625C14.6625 4.03125 15.0938 4.29375 15.525 4.63125C16.125 5.23125 16.2938 5.7375 16.2938 7.2V8.23125H12.8812V7.36875C12.8812 6.9375 12.8812 6.6 12.7875 6.50625C12.6937 6.4125 12.2812 6.3375 12.0187 6.3375C11.6812 6.43125 11.5875 6.50625 11.5875 7.875C11.5875 8.56875 11.5875 9.16875 11.5875 9.16875C11.5875 9.16875 11.6813 9.075 11.85 9.075C12.1125 8.90625 12.6188 8.8125 13.4813 8.8125C14.5875 8.8125 15.2812 8.98125 15.8812 9.50625C16.3875 9.9375 16.3875 9.76875 16.3875 13.7062C16.3875 17.0437 16.3875 17.2125 16.2938 17.5687C15.9563 18.5062 15.2625 19.1063 13.9875 19.4625C13.2 19.6313 11.2313 19.6312 10.6313 19.5375Z" fill="#FDFDFD"/>
<path d="M11.8312 14.8312C11.8312 14.8312 11.7375 14.6625 11.7375 14.4938C11.7375 14.1563 11.7375 14.1562 11.9062 14.0625C12 14.0625 12.1688 13.9688 12.3375 14.0625C12.6 14.1562 12.6 14.0625 12.4313 13.8937C12.3375 13.725 12.3375 13.725 12.3375 13.725C12.5063 13.725 12.6 13.8938 12.6 14.4188V14.85H12.2625C12 14.9062 11.8312 14.8312 11.8312 14.8312Z" fill="#FDFDFD"/>
</svg>
