<svg width="24" height="24" viewBox="0 0 24 24" fill="none" xmlns="http://www.w3.org/2000/svg">
<path d="M24 5C24 2.23858 21.7614 0 19 0H5C2.23858 0 0 2.23858 0 5V19C0 21.7614 2.23858 24 5 24H19C21.7614 24 24 21.7614 24 19V5Z" fill="#A51C0F"/>
<path d="M19.275 19.3875L16.4437 19.6125L3.43125 4.40625L4.51875 3.43125H5.4L20.5875 15.0187L19.275 19.3875ZM5.4375 20.5687L3.43125 18.1125L4.8375 13.9125L8.83125 18.8625L5.4375 20.5687ZM17.325 3.43125L18.7688 4.85625L18.15 8.19375L14.25 4.6125L17.325 3.43125Z" fill="white"/>
</svg>
