<svg width="24" height="24" viewBox="0 0 24 24" fill="none" xmlns="http://www.w3.org/2000/svg">
<path d="M19 0H5C2.23858 0 0 2.23858 0 5V19C0 21.7614 2.23858 24 5 24H19C21.7614 24 24 21.7614 24 19V5C24 2.23858 21.7614 0 19 0Z" fill="#E9A21A"/>
<path d="M0 5C0 2.23858 2.23858 0 5 0H12V12L15 24H5C2.23858 24 0 21.7614 0 19V5Z" fill="#313E77"/>
<path d="M16.0875 5.025H15.525L15.7125 4.65H16.0875V5.025ZM15.4125 5.79375L15.1313 5.23125L15.9 5.325L15.4125 5.79375ZM23.1375 3.6H20.775V3.31875H20.5875V2.56875H20.3063V3.4125H20.025V3.225H14.9438V3.0375H14.3813L13.2563 3.31875L13.1625 2.75625L13.8375 2.38125V1.40625L13.65 1.03125V0.75C13.3875 0.375 12.4688 0 11.9625 0C11.4375 0 10.9688 0.05625 10.4625 0.84375C9.95625 1.63125 10.275 2.55 10.275 2.55V3.01875C10.0313 2.8125 9.50625 2.7375 9.50625 2.7375C8.1375 2.7375 7.51875 4.875 7.51875 5.5875C7.51875 6.3 7.6125 6.825 7.6125 6.825H6.84375C6.6 6.825 6.5625 7.33125 6.5625 7.85625C6.54375 8.38125 6.39375 9.20625 6.46875 9.375C6.525 9.525 7.14375 9.5625 7.14375 9.5625C7.14375 9.5625 6.975 9.6375 6.76875 9.9375C6.54375 10.2563 6.76875 11.0813 6.76875 11.0813V12.4125L6.6375 12.4875L6.45 12.675V12.9563L6.54375 13.1438L6.45 13.425V13.8L6.6375 14.0813C6.6375 14.0813 6.5625 14.5688 6.45 15.1125C6.3375 15.675 6.35625 17.1188 6.35625 17.1188C6.09375 17.1375 6.075 17.4938 6.075 17.4938C6.075 17.4938 6.01875 17.5688 5.7 18.0563C5.3625 18.5438 5.26875 19.0313 5.23125 19.3875C5.175 19.7438 4.93125 20.0063 4.66875 20.4188C4.3875 20.8313 4.85625 21.3563 4.85625 21.3563C4.35 22.5563 4.25625 23.4 4.2375 23.9063H6.0375C5.98125 23.7375 5.8875 23.3625 5.8875 22.9688C5.8875 22.4438 6.35625 21.5438 6.35625 21.5438L6.73125 21.45L6.825 21.075C6.9 20.7563 7.2375 20.0813 7.5 19.5563C7.74375 19.0313 7.5 18.7125 7.5 18.7125L7.6875 18.2438L7.96875 17.9625L8.34375 17.4938L8.625 17.1188L8.71875 16.65C8.71875 16.65 8.925 16.0313 9 15.6188C9.075 15.1875 9.675 14.5875 9.675 14.5875L9.76875 14.1188L10.2375 14.8688L10.8 14.9625L12 16.9875H12.675L12.8625 17.175V18.0188L12.5813 18.3938L12.7688 19.8188L12.8625 20.85L13.05 21.0375L13.2375 22.4625L12.9563 22.65L12.8625 23.9625H16.5375V23.8875L16.4438 23.6063L16.0688 23.4188L15.6 23.2313L14.6625 22.2L14.7563 20.8688L14.9438 20.4938V19.8375L14.7563 19.4625L14.9438 18.525L15.0375 16.725L14.85 16.6313V16.0688H14.6625C14.6625 16.0688 14.2875 15 14.1 14.4563C13.8938 13.9125 13.2 12.9375 12.8813 12.6563C12.5438 12.375 12.525 11.8875 12.5063 11.7188C12.4875 11.5313 12.6938 11.3438 12.6938 11.3438C12.6938 11.3438 12.7875 11.4 12.975 11.4375C13.1625 11.475 13.1625 11.3438 13.1625 11.3438L13.35 10.9688L13.5375 10.6875L13.6313 9.84375V8.60625C13.575 8.1375 13.1625 7.95 13.1625 7.95L13.2563 7.575L13.6125 7.7625L14.0813 7.95L14.6438 8.23125L15.3188 8.41875L15.7875 8.325L16.2563 8.04375L16.725 7.3875L16.9125 6.54375L17.1938 6.45L17.2875 6.2625L17.1938 5.8875V5.04375L17.5688 4.7625L17.6625 4.575L17.9438 4.3875H20.1188V4.10625H23.1375V3.6Z" fill="white"/>
</svg>
