<svg width="42" height="42" viewBox="0 0 42 42" fill="none" xmlns="http://www.w3.org/2000/svg">
<path d="M21 12.8072C23.6506 12.8072 24.0121 12.8072 25.0964 12.8072C26.0602 12.8072 26.5422 13.0482 26.9036 13.1687C27.3855 13.4096 27.747 13.5301 28.1084 13.8916C28.4699 14.253 28.7108 14.6145 28.8313 15.0964C28.9518 15.4578 29.0723 15.9398 29.1928 16.9036C29.1928 17.988 29.1928 18.2289 29.1928 21C29.1928 23.7711 29.1928 24.0121 29.1928 25.0964C29.1928 26.0602 28.9518 26.5422 28.8313 26.9036C28.5904 27.3855 28.4699 27.747 28.1084 28.1084C27.747 28.4699 27.3855 28.7108 26.9036 28.8313C26.5422 28.9518 26.0602 29.0723 25.0964 29.1928C24.0121 29.1928 23.7711 29.1928 21 29.1928C18.2289 29.1928 17.988 29.1928 16.9036 29.1928C15.9398 29.1928 15.4578 28.9518 15.0964 28.8313C14.6145 28.5904 14.253 28.4699 13.8916 28.1084C13.5301 27.747 13.2892 27.3855 13.1687 26.9036C13.0482 26.5422 12.9277 26.0602 12.8072 25.0964C12.8072 24.0121 12.8072 23.7711 12.8072 21C12.8072 18.2289 12.8072 17.988 12.8072 16.9036C12.8072 15.9398 13.0482 15.4578 13.1687 15.0964C13.4096 14.6145 13.5301 14.253 13.8916 13.8916C14.253 13.5301 14.6145 13.2892 15.0964 13.1687C15.4578 13.0482 15.9398 12.9277 16.9036 12.8072C17.988 12.8072 18.3494 12.8072 21 12.8072ZM21 11C18.2289 11 17.988 11 16.9036 11C15.8193 11 15.0964 11.241 14.494 11.4819C13.8916 11.7229 13.2892 12.0843 12.6867 12.6867C12.0843 13.2892 11.8434 13.7711 11.4819 14.494C11.241 15.0964 11.1205 15.8193 11 16.9036C11 17.988 11 18.3494 11 21C11 23.7711 11 24.0121 11 25.0964C11 26.1807 11.241 26.9036 11.4819 27.506C11.7229 28.1084 12.0843 28.7108 12.6867 29.3133C13.2892 29.9157 13.7711 30.1566 14.494 30.5181C15.0964 30.759 15.8193 30.8795 16.9036 31C17.988 31 18.3494 31 21 31C23.6506 31 24.0121 31 25.0964 31C26.1807 31 26.9036 30.759 27.506 30.5181C28.1084 30.2771 28.7108 29.9157 29.3133 29.3133C29.9157 28.7108 30.1566 28.2289 30.5181 27.506C30.759 26.9036 30.8795 26.1807 31 25.0964C31 24.0121 31 23.6506 31 21C31 18.3494 31 17.988 31 16.9036C31 15.8193 30.759 15.0964 30.5181 14.494C30.2771 13.8916 29.9157 13.2892 29.3133 12.6867C28.7108 12.0843 28.2289 11.8434 27.506 11.4819C26.9036 11.241 26.1807 11.1205 25.0964 11C24.0121 11 23.7711 11 21 11Z" fill="#787878"/>
<path d="M21 15.8193C18.1084 15.8193 15.8193 18.1084 15.8193 21C15.8193 23.8916 18.1084 26.1807 21 26.1807C23.8916 26.1807 26.1807 23.8916 26.1807 21C26.1807 18.1084 23.8916 15.8193 21 15.8193ZM21 24.3735C19.1928 24.3735 17.6265 22.9277 17.6265 21C17.6265 19.1928 19.0723 17.6265 21 17.6265C22.8072 17.6265 24.3735 19.0723 24.3735 21C24.3735 22.8072 22.8072 24.3735 21 24.3735Z" fill="#787878"/>
<path d="M26.3012 16.9036C26.9666 16.9036 27.506 16.3642 27.506 15.6988C27.506 15.0334 26.9666 14.494 26.3012 14.494C25.6358 14.494 25.0964 15.0334 25.0964 15.6988C25.0964 16.3642 25.6358 16.9036 26.3012 16.9036Z" fill="#787878"/>
</svg>
