<svg width="42" height="42" viewBox="0 0 42 42" fill="none" xmlns="http://www.w3.org/2000/svg">
<path d="M28.5 22.6143V28.13H25.2713V22.9506C25.2713 21.6726 24.8004 20.7981 23.657 20.7981C22.7825 20.7981 22.2444 21.4035 22.0426 21.9416C21.9753 22.1434 21.9081 22.4125 21.9081 22.7488V28.13H18.6794C18.6794 28.13 18.7466 19.3856 18.6794 18.5111H21.9081V19.8564C22.3117 19.1838 23.1188 18.2421 24.8004 18.2421C26.8856 18.2421 28.5 19.6546 28.5 22.6143ZM15.3161 13.8699C14.2399 13.8699 13.5 14.6098 13.5 15.5515C13.5 16.4932 14.1726 17.2331 15.2489 17.2331C16.3924 17.2331 17.065 16.4932 17.065 15.5515C17.1323 14.5425 16.4596 13.8699 15.3161 13.8699ZM13.7018 28.13H16.9305V18.5111H13.7018V28.13Z" fill="#787878"/>
</svg>
