<svg width="78" height="40" viewBox="0 0 78 40" fill="none" xmlns="http://www.w3.org/2000/svg">
<path d="M0 0H77.7778L67.7778 40H0V0Z" fill="#E6E7F2"/>
<path d="M22.2222 8.88889H26.6667V13.3333H22.2222V8.88889Z" fill="#1B2AF0"/>
<path d="M17.7778 8.88889H22.2222V13.3333H17.7778V8.88889Z" fill="#1B2AF0"/>
<path d="M17.7778 26.6667H22.2222V31.1111H17.7778V26.6667Z" fill="#1B2AF0"/>
<path d="M26.6667 8.88889L27.7778 13.3333H26.6667V8.88889Z" fill="#1B2AF0"/>
<path d="M17.7778 13.3333H22.2222V17.7778H17.7778V13.3333Z" fill="#1B2AF0"/>
<path d="M17.7778 17.7778H22.2222V22.2222H17.7778V17.7778Z" fill="#1B2AF0"/>
<path d="M17.7778 22.2222H22.2222V26.6667H17.7778V22.2222Z" fill="#1B2AF0"/>
<path d="M22.2222 26.6667H26.6667V31.1111H22.2222V26.6667Z" fill="#1B2AF0"/>
<path d="M26.6667 26.6667H31.1111V31.1111H26.6667V26.6667Z" fill="#1B2AF0"/>
<path d="M31.1111 26.6667L32.2222 31.1111H31.1111V26.6667Z" fill="#1B2AF0"/>
<path d="M46.6667 8.88889L44.4444 17.7778L47.7778 31.1111H52.2222L46.6667 8.88889Z" fill="#1B2AF0"/>
<path d="M35.5556 8.88889H31.1111L36.6667 31.1111L38.8889 22.2222L35.5556 8.88889Z" fill="#1B2AF0"/>
<path d="M42.2222 8.88889H46.6667L41.1111 31.1111H36.6667L42.2222 8.88889Z" fill="#1B2AF0"/>
<path d="M53.3333 8.88889H57.7778L52.2222 31.1111L50 22.2222L53.3333 8.88889Z" fill="#1B2AF0"/>
<path d="M57.7778 8.88889H53.3333V4.44444L54.4444 7.77778L55.5556 4.44444L56.6667 7.77778L57.7778 4.44444V8.88889Z" fill="#FFB800"/>
</svg>
