<svg width="40" height="40" viewBox="0 0 40 40" fill="none" xmlns="http://www.w3.org/2000/svg">
<rect width="40" height="40" rx="10" fill="#787878"/>
<path d="M15.2297 18.3879C13.9976 17.1626 13.2348 15.4658 13.2348 13.5909C13.2348 11.716 13.9976 10.0192 15.2297 8.79389C14.5203 8.44559 13.7224 8.25 12.8788 8.25C9.92908 8.25 7.53788 10.6412 7.53788 13.5909C7.53788 16.5406 9.92908 18.9318 12.8788 18.9318C13.7224 18.9318 14.5203 18.7362 15.2297 18.3879Z" fill="#181818"/>
<path d="M14.6591 13.5909C14.6591 10.6412 17.0503 8.25 20 8.25C22.9497 8.25 25.3409 10.6412 25.3409 13.5909C25.3409 16.5406 22.9497 18.9318 20 18.9318C17.0503 18.9318 14.6591 16.5406 14.6591 13.5909Z" fill="#181818"/>
<path d="M24.7703 8.79389C26.0024 10.0192 26.7652 11.716 26.7652 13.5909C26.7652 15.4658 26.0024 17.1626 24.7703 18.3879C25.4797 18.7362 26.2776 18.9318 27.1212 18.9318C30.0709 18.9318 32.4621 16.5406 32.4621 13.5909C32.4621 10.6412 30.0709 8.25 27.1212 8.25C26.2776 8.25 25.4797 8.44559 24.7703 8.79389Z" fill="#181818"/>
<path d="M10.3864 26.4091C10.3864 23.4594 12.7776 21.0682 15.7273 21.0682H24.2727C27.2224 21.0682 29.6136 23.4594 29.6136 26.4091C29.6136 29.3588 27.2224 31.75 24.2727 31.75H15.7273C12.7776 31.75 10.3864 29.3588 10.3864 26.4091Z" fill="#181818"/>
<path d="M3.26515 24.9848C3.26515 22.0351 5.65636 19.6439 8.60606 19.6439H15.7273C11.991 19.6439 8.96212 22.6728 8.96212 26.4091C8.96212 27.8688 9.4244 29.2205 10.2105 30.3258H8.60606C5.65636 30.3258 3.26515 27.9346 3.26515 24.9848Z" fill="#181818"/>
<path d="M31.0379 26.4091C31.0379 27.8688 30.5756 29.2205 29.7895 30.3258H31.3939C34.3436 30.3258 36.7348 27.9346 36.7348 24.9848C36.7348 22.0351 34.3436 19.6439 31.3939 19.6439H24.2727C28.009 19.6439 31.0379 22.6728 31.0379 26.4091Z" fill="#181818"/>
</svg>
