<svg width="24" height="24" viewBox="0 0 24 24" fill="none" xmlns="http://www.w3.org/2000/svg">
<path d="M18.9427 17.4807C18.5507 17.0917 17.9175 17.0941 17.5285 17.4861C17.1395 17.8782 17.1419 18.5113 17.5339 18.9003L18.9427 17.4807ZM21.3728 22.7098C21.7648 23.0988 22.3979 23.0964 22.787 22.7044C23.176 22.3124 23.1736 21.6792 22.7815 21.2902L21.3728 22.7098ZM17.5339 18.9003L21.3728 22.7098L22.7815 21.2902L18.9427 17.4807L17.5339 18.9003ZM10.5604 18.1428C6.33505 18.1428 2.92285 14.7458 2.92285 10.5714H0.922852C0.922852 15.8648 5.245 20.1428 10.5604 20.1428V18.1428ZM18.198 10.5714C18.198 14.7458 14.7858 18.1428 10.5604 18.1428V20.1428C15.8758 20.1428 20.198 15.8648 20.198 10.5714H18.198ZM10.5604 3C14.7858 3 18.198 6.39707 18.198 10.5714H20.198C20.198 5.27803 15.8758 1 10.5604 1V3ZM10.5604 1C5.245 1 0.922852 5.27803 0.922852 10.5714H2.92285C2.92285 6.39707 6.33505 3 10.5604 3V1Z" fill="#787878"/>
</svg>
