<svg width="42" height="42" viewBox="0 0 42 42" fill="none" xmlns="http://www.w3.org/2000/svg">
<path d="M21.9825 28C14.466 28 10.1786 22.7447 10 14H13.7651C13.8888 20.4184 16.6646 23.1371 18.8632 23.6977V14H22.4085V19.5355C24.5796 19.2973 26.8607 16.7748 27.6302 14H31.1755C30.8855 15.4391 30.3075 16.8017 29.4776 18.0025C28.6477 19.2033 27.5837 20.2166 26.3523 20.979C27.7269 21.6756 28.941 22.6615 29.9145 23.8717C30.888 25.082 31.5988 26.489 32 28H28.0974C27.7373 26.6876 27.0054 25.5128 25.9934 24.6228C24.9814 23.7328 23.7343 23.1673 22.4085 22.997V28H21.9825Z" fill="#787878"/>
</svg>
