<svg width="42" height="42" viewBox="0 0 42 42" fill="none" xmlns="http://www.w3.org/2000/svg">
<path fill-rule="evenodd" clip-rule="evenodd" d="M12.2625 28.0568C11.8702 27.9408 11.5123 27.7343 11.219 27.4549C10.9256 27.1754 10.7054 26.8312 10.5769 26.4512C9.84292 24.4874 9.62543 16.2869 11.0391 14.6681C11.5096 14.1414 12.1739 13.8172 12.8878 13.7658C16.6802 13.3677 28.3975 13.4208 29.7432 13.8985C30.1217 14.0183 30.4675 14.2203 30.7547 14.4891C31.0419 14.758 31.263 15.0868 31.4015 15.451C32.2035 17.4812 32.2307 24.8589 31.2928 26.8095C31.044 27.3173 30.6275 27.7285 30.1102 27.9772C28.6965 28.6672 14.1383 28.6539 12.2625 28.0568ZM18.2842 24.2087L25.0808 20.7587L18.2842 17.2821V24.2087Z" fill="#787878"/>
</svg>
